<svg width="91" height="52" viewBox="0 0 91 52" fill="none" xmlns="http://www.w3.org/2000/svg">
<path d="M23.6719 13.8281V20.2734H15.9766V39.8828H8.67188V20.2734H0.976562V13.8281H23.6719ZM38.9766 27.4609C38.5859 27.2526 38.1693 27.0964 37.7266 26.9922C37.3099 26.862 36.8151 26.7969 36.2422 26.7969C35.3307 26.7969 34.5234 27.0703 33.8203 27.6172C33.1172 28.1641 32.5443 28.8802 32.1016 29.7656V40H25.3828V20.0781H32.1016V23.6328C32.7266 22.5651 33.4167 21.6406 34.1719 20.8594C34.9531 20.0781 35.9688 19.6875 37.2188 19.6875C37.8958 19.6875 38.4818 19.8047 38.9766 20.0391V27.4609ZM45.6875 8.90625C46.4427 8.90625 47.1328 9.08854 47.7578 9.45312C48.4089 9.81771 48.9297 10.3125 49.3203 10.9375C49.7109 11.5365 49.9062 12.2135 49.9062 12.9688C49.9062 13.6979 49.7109 14.375 49.3203 15C48.9297 15.625 48.4089 16.1198 47.7578 16.4844C47.1328 16.849 46.4427 17.0312 45.6875 17.0312C44.5677 17.0312 43.5911 16.6406 42.7578 15.8594C41.9245 15.0521 41.5078 14.0885 41.5078 12.9688C41.5078 11.8229 41.9245 10.8594 42.7578 10.0781C43.5911 9.29688 44.5677 8.90625 45.6875 8.90625ZM49.4766 20.0781V40H42.7578V25.5469H39.5156V20.0781H49.4766ZM65.6406 19.4922C67.125 19.4922 68.5182 19.8698 69.8203 20.625C71.1484 21.3802 72.2161 22.5391 73.0234 24.1016C73.8307 25.6641 74.2344 27.6562 74.2344 30.0781C74.2344 32.3177 73.8177 34.2188 72.9844 35.7812C72.1771 37.3438 71.0833 38.5417 69.7031 39.375C68.349 40.1823 66.8646 40.5859 65.25 40.5859C64.2083 40.5859 63.1797 40.3646 62.1641 39.9219C61.1745 39.4531 60.3542 38.8672 59.7031 38.1641V49.375H52.9844V20.0781H59.7031V23.3984C60.1979 22.3047 60.9531 21.3802 61.9688 20.625C62.9844 19.8698 64.2083 19.4922 65.6406 19.4922ZM63.6484 26.2891C63.1016 26.2891 62.5156 26.4453 61.8906 26.7578C61.2917 27.0443 60.7708 27.5 60.3281 28.125C59.9115 28.724 59.7031 29.5052 59.7031 30.4688V32.3828C60.3021 32.8516 60.9531 33.2422 61.6562 33.5547C62.3854 33.8672 63.1146 34.0234 63.8438 34.0234C64.8333 34.0234 65.6406 33.6328 66.2656 32.8516C66.8906 32.0443 67.2031 31.1198 67.2031 30.0781C67.2031 29.0104 66.8776 28.112 66.2266 27.3828C65.5755 26.6536 64.7161 26.2891 63.6484 26.2891Z" fill="#163D49"/>
<path d="M89.9297 27.4609C89.5391 27.2526 89.1224 27.0964 88.6797 26.9922C88.263 26.862 87.7682 26.7969 87.1953 26.7969C86.2839 26.7969 85.4766 27.0703 84.7734 27.6172C84.0703 28.1641 83.4974 28.8802 83.0547 29.7656V40H76.3359V20.0781H83.0547V23.6328C83.6797 22.5651 84.3698 21.6406 85.125 20.8594C85.9062 20.0781 86.9219 19.6875 88.1719 19.6875C88.849 19.6875 89.4349 19.8047 89.9297 20.0391V27.4609Z" fill="#F29383"/>
<circle cx="46" cy="13" r="5" fill="#F29383"/>
</svg>
