<svg width="12" height="13" viewBox="0 0 12 13" fill="none" xmlns="http://www.w3.org/2000/svg">
<g id="ep:arrow-down-bold">
<path id="Vector" d="M1.22698 4.46971C1.36762 4.32911 1.55835 4.25012 1.75723 4.25012C1.9561 4.25012 2.14683 4.32911 2.28748 4.46971L5.99998 8.18221L9.71247 4.46971C9.85393 4.33309 10.0434 4.2575 10.24 4.25921C10.4367 4.26091 10.6248 4.33979 10.7638 4.47885C10.9029 4.6179 10.9818 4.80601 10.9835 5.00266C10.9852 5.19931 10.9096 5.38876 10.773 5.53021L6.53022 9.77296C6.38958 9.91357 6.19885 9.99255 5.99998 9.99255C5.8011 9.99255 5.61037 9.91357 5.46973 9.77296L1.22698 5.53021C1.08637 5.38957 1.00739 5.19884 1.00739 4.99996C1.00739 4.80109 1.08637 4.61036 1.22698 4.46971Z" fill="#94A6AB"/>
</g>
</svg>
