<svg width="21" height="21" viewBox="0 0 21 21" fill="none" xmlns="http://www.w3.org/2000/svg">
<g id="fluent:location-16-regular">
<path id="Vector" d="M12.4688 9.1875C12.4688 8.66536 12.2613 8.1646 11.8921 7.79538C11.5229 7.42617 11.0221 7.21875 10.5 7.21875C9.97786 7.21875 9.4771 7.42617 9.10788 7.79538C8.73867 8.1646 8.53125 8.66536 8.53125 9.1875C8.53125 9.70965 8.73867 10.2104 9.10788 10.5796C9.4771 10.9488 9.97786 11.1562 10.5 11.1562C11.0221 11.1562 11.5229 10.9488 11.8921 10.5796C12.2613 10.2104 12.4688 9.70965 12.4688 9.1875ZM18.375 9.1875C18.375 12.9596 14.3102 17.0835 12.0212 19.1074C11.6026 19.4811 11.0611 19.6877 10.5 19.6877C9.93886 19.6877 9.39735 19.4811 8.97881 19.1074C6.68981 17.0835 2.625 12.9596 2.625 9.1875C2.625 8.15334 2.82869 7.12931 3.22445 6.17387C3.6202 5.21843 4.20027 4.3503 4.93153 3.61903C5.6628 2.88777 6.53093 2.3077 7.48637 1.91195C8.44181 1.51619 9.46584 1.3125 10.5 1.3125C11.5342 1.3125 12.5582 1.51619 13.5136 1.91195C14.4691 2.3077 15.3372 2.88777 16.0685 3.61903C16.7997 4.3503 17.3798 5.21843 17.7756 6.17387C18.1713 7.12931 18.375 8.15334 18.375 9.1875ZM17.0625 9.1875C17.0625 7.44702 16.3711 5.77782 15.1404 4.54711C13.9097 3.3164 12.2405 2.625 10.5 2.625C8.75952 2.625 7.09032 3.3164 5.85961 4.54711C4.6289 5.77782 3.9375 7.44702 3.9375 9.1875C3.9375 10.6418 4.74469 12.3309 5.99813 14.0214C7.224 15.6726 8.73731 17.1412 9.84769 18.1243C10.0263 18.2863 10.2589 18.376 10.5 18.376C10.7411 18.376 10.9737 18.2863 11.1523 18.1243C12.2627 17.1412 13.7773 15.6739 15.0019 14.0214C16.2553 12.3309 17.0625 10.6418 17.0625 9.1875Z" fill="#F29383"/>
</g>
</svg>
