<svg width="35" height="36" viewBox="0 0 35 36" fill="none" xmlns="http://www.w3.org/2000/svg">
<g id="ph:magnifying-glass-light">
<path id="Vector" d="M31.2047 30.5454L24.1801 23.5208C26.1832 21.2171 27.2137 18.2257 27.0543 15.177C26.8949 12.1284 25.558 9.26079 23.3255 7.17862C21.093 5.09645 18.1393 3.96242 15.0869 4.01558C12.0346 4.06874 9.12217 5.30494 6.96353 7.46359C4.80488 9.62223 3.56868 12.5347 3.51552 15.587C3.46236 18.6393 4.59639 21.5931 6.67856 23.8256C8.76073 26.0581 11.6284 27.3949 14.677 27.5544C17.7256 27.7138 20.717 26.6833 23.0207 24.6801L30.0453 31.7047C30.2008 31.8496 30.4065 31.9285 30.619 31.9248C30.8315 31.921 31.0343 31.8349 31.1846 31.6846C31.3349 31.5343 31.421 31.3316 31.4247 31.1191C31.4285 30.9065 31.3496 30.7009 31.2047 30.5454ZM5.19531 15.8126C5.19531 13.8116 5.78867 11.8555 6.90036 10.1917C8.01205 8.52799 9.59214 7.23124 11.4408 6.4655C13.2895 5.69975 15.3237 5.4994 17.2863 5.88977C19.2488 6.28014 21.0515 7.24371 22.4664 8.65863C23.8813 10.0735 24.8449 11.8763 25.2353 13.8388C25.6257 15.8013 25.4253 17.8356 24.6596 19.6842C23.8938 21.5329 22.5971 23.113 20.9333 24.2247C19.2695 25.3364 17.3135 25.9297 15.3125 25.9297C12.6303 25.9265 10.0588 24.8595 8.16216 22.9629C6.26553 21.0663 5.19857 18.4948 5.19531 15.8126Z" fill="white"/>
</g>
</svg>
