<svg width="21" height="21" viewBox="0 0 21 21" fill="none" xmlns="http://www.w3.org/2000/svg">
<g id="solar:calendar-line-duotone">
<g id="Group">
<path id="Vector" d="M1.75 10.5C1.75 7.20038 1.75 5.55012 2.7755 4.5255C3.80012 3.5 5.45038 3.5 8.75 3.5H12.25C15.5496 3.5 17.1999 3.5 18.2245 4.5255C19.25 5.55012 19.25 7.20038 19.25 10.5V12.25C19.25 15.5496 19.25 17.1999 18.2245 18.2245C17.1999 19.25 15.5496 19.25 12.25 19.25H8.75C5.45038 19.25 3.80012 19.25 2.7755 18.2245C1.75 17.1999 1.75 15.5496 1.75 12.25V10.5Z" stroke="#F29383" stroke-width="1.5"/>
<path id="Vector_2" opacity="0.5" d="M6.125 3.5V2.1875M14.875 3.5V2.1875M2.1875 7.875H18.8125" stroke="#F29383" stroke-width="1.5" stroke-linecap="round"/>
<path id="Vector_3" d="M15.75 14.875C15.75 15.1071 15.6578 15.3296 15.4937 15.4937C15.3296 15.6578 15.1071 15.75 14.875 15.75C14.6429 15.75 14.4204 15.6578 14.2563 15.4937C14.0922 15.3296 14 15.1071 14 14.875C14 14.6429 14.0922 14.4204 14.2563 14.2563C14.4204 14.0922 14.6429 14 14.875 14C15.1071 14 15.3296 14.0922 15.4937 14.2563C15.6578 14.4204 15.75 14.6429 15.75 14.875ZM15.75 11.375C15.75 11.6071 15.6578 11.8296 15.4937 11.9937C15.3296 12.1578 15.1071 12.25 14.875 12.25C14.6429 12.25 14.4204 12.1578 14.2563 11.9937C14.0922 11.8296 14 11.6071 14 11.375C14 11.1429 14.0922 10.9204 14.2563 10.7563C14.4204 10.5922 14.6429 10.5 14.875 10.5C15.1071 10.5 15.3296 10.5922 15.4937 10.7563C15.6578 10.9204 15.75 11.1429 15.75 11.375ZM11.375 14.875C11.375 15.1071 11.2828 15.3296 11.1187 15.4937C10.9546 15.6578 10.7321 15.75 10.5 15.75C10.2679 15.75 10.0454 15.6578 9.88128 15.4937C9.71719 15.3296 9.625 15.1071 9.625 14.875C9.625 14.6429 9.71719 14.4204 9.88128 14.2563C10.0454 14.0922 10.2679 14 10.5 14C10.7321 14 10.9546 14.0922 11.1187 14.2563C11.2828 14.4204 11.375 14.6429 11.375 14.875ZM11.375 11.375C11.375 11.6071 11.2828 11.8296 11.1187 11.9937C10.9546 12.1578 10.7321 12.25 10.5 12.25C10.2679 12.25 10.0454 12.1578 9.88128 11.9937C9.71719 11.8296 9.625 11.6071 9.625 11.375C9.625 11.1429 9.71719 10.9204 9.88128 10.7563C10.0454 10.5922 10.2679 10.5 10.5 10.5C10.7321 10.5 10.9546 10.5922 11.1187 10.7563C11.2828 10.9204 11.375 11.1429 11.375 11.375ZM7 14.875C7 15.1071 6.90781 15.3296 6.74372 15.4937C6.57962 15.6578 6.35706 15.75 6.125 15.75C5.89294 15.75 5.67038 15.6578 5.50628 15.4937C5.34219 15.3296 5.25 15.1071 5.25 14.875C5.25 14.6429 5.34219 14.4204 5.50628 14.2563C5.67038 14.0922 5.89294 14 6.125 14C6.35706 14 6.57962 14.0922 6.74372 14.2563C6.90781 14.4204 7 14.6429 7 14.875ZM7 11.375C7 11.6071 6.90781 11.8296 6.74372 11.9937C6.57962 12.1578 6.35706 12.25 6.125 12.25C5.89294 12.25 5.67038 12.1578 5.50628 11.9937C5.34219 11.8296 5.25 11.6071 5.25 11.375C5.25 11.1429 5.34219 10.9204 5.50628 10.7563C5.67038 10.5922 5.89294 10.5 6.125 10.5C6.35706 10.5 6.57962 10.5922 6.74372 10.7563C6.90781 10.9204 7 11.1429 7 11.375Z" fill="#F29383"/>
</g>
</g>
</svg>
